<svg width="1300" height="1297" xmlns="http://www.w3.org/2000/svg" xmlns:xlink="http://www.w3.org/1999/xlink" xml:space="preserve" overflow="hidden"><defs><clipPath id="clip0"><rect x="1550" y="588" width="1300" height="1297"/></clipPath></defs><g clip-path="url(#clip0)" transform="translate(-1550 -588)"><path d="M1550 1238C1550 879.015 1841.01 588 2200 588 2558.99 588 2850 879.015 2850 1238 2764.07 879.015 2403.4 657.656 2044.42 743.582 1799.67 802.163 1608.58 993.255 1550 1238Z" fill="#FAB005" fill-rule="evenodd"/><path d="M2201.73 848.76C2487.63 823.455 2739.91 1034.71 2765.21 1320.6 2790.51 1606.5 2579.26 1858.78 2293.37 1884.08 2572.32 1780.28 2714.3 1469.99 2610.49 1191.04 2544.17 1012.82 2388.83 882.748 2201.73 848.76Z" fill="#FAB005" fill-rule="evenodd"/><path d="M2553.16 1458.42C2513.29 1684.54 2297.66 1835.53 2071.53 1795.66 1845.41 1755.78 1694.42 1540.15 1734.3 1314.03 1776.56 1554.64 2005.87 1715.42 2246.47 1673.16 2375.45 1650.51 2487.76 1571.87 2553.16 1458.42Z" fill="#FAB005" fill-rule="evenodd"/><path d="M2055.76 1550.66C1896.35 1507.94 1801.75 1344.09 1844.47 1184.68 1887.18 1025.27 2051.03 930.668 2210.44 973.382 2033.59 995.776 1908.37 1157.3 1930.77 1334.16 1941.66 1420.18 1986.71 1498.21 2055.76 1550.66Z" fill="#FAB005" fill-rule="evenodd"/><path d="M2039.41 1187.54C2078.67 1079.66 2197.96 1024.03 2305.84 1063.3 2413.72 1102.57 2469.35 1221.85 2430.08 1329.74 2420.68 1204.14 2311.25 1109.95 2185.66 1119.34 2130.23 1123.49 2078.22 1147.74 2039.41 1187.54Z" fill="#FAB005" fill-rule="evenodd"/><path d="M2150 1262.5C2150 1238.48 2169.48 1219 2193.5 1219 2217.52 1219 2237 1238.48 2237 1262.5 2237 1286.52 2217.52 1306 2193.5 1306 2169.48 1306 2150 1286.52 2150 1262.5Z" fill="#FAB005" fill-rule="evenodd"/><path d="M2283.95 1199.55C2355.48 1232.91 2386.43 1317.94 2353.07 1389.47 2319.72 1461.01 2234.69 1491.96 2163.15 1458.6 2256.11 1446.01 2321.26 1360.44 2308.67 1267.48 2305.4 1243.32 2296.97 1220.16 2283.95 1199.55Z" fill="#FAB005" fill-rule="evenodd"/><path d="M2238.55 1369.82C2213.44 1413.32 2157.82 1428.23 2114.32 1403.11 2070.82 1378 2055.92 1322.38 2081.03 1278.88 2089.28 1341.64 2146.84 1385.83 2209.59 1377.58 2219.54 1376.28 2229.28 1373.67 2238.55 1369.82Z" fill="#FAB005" fill-rule="evenodd"/></g></svg>
